AcariSans-BoldItalic.ufo
<glyph name="parenleft" format="2">
  <advance width="587"/>
  <unicode hex="0028"/>
  <outline>
    <contour>
      <point x="419.84" y="-119.808" type="line"/>
      <point x="336.896" y="28.672"/>
      <point x="295.936" y="180.224"/>
      <point x="295.936" y="334.848" type="curve" smooth="yes"/>
      <point x="295.936" y="777.216"/>
      <point x="503.808" y="1277.95"/>
      <point x="822.272" y="1580.03" type="curve"/>
      <point x="591.872" y="1580.03" type="line"/>
      <point x="273.408" y="1294.31"/>
      <point x="110.592" y="748.544"/>
      <point x="110.592" y="336.896" type="curve" smooth="yes"/>
      <point x="110.592" y="193.536"/>
      <point x="130.048" y="2.04804"/>
      <point x="214.016" y="-119.808" type="curve"/>
    </contour>
  </outline>
</glyph>
<glyph name="four" format="2">
  <advance width="1229"/>
  <unicode hex="0034"/>
  <outline>
    <contour>
      <point x="825.344" y="0" type="line"/>
      <point x="900.096" y="338.944" type="line"/>
      <point x="1121.28" y="338.944" type="line"/>
      <point x="1173.5" y="577.536" type="line"/>
      <point x="952.32" y="577.536" type="line"/>
      <point x="1145.86" y="1446.91" type="line"/>
      <point x="924.672" y="1446.91" type="line"/>
      <point x="32.768" y="487.424" type="line"/>
      <point x="2.04802" y="338.944" type="line"/>
      <point x="643.072" y="338.944" type="line"/>
      <point x="569.344" y="0" type="line"/>
    </contour>
    <contour>
      <point x="695.296" y="577.536" type="line"/>
      <point x="385.024" y="577.536" type="line"/>
      <point x="797.696" y="1031.17" type="line"/>
    </contour>
  </outline>
</glyph>
<glyph name="five" format="2">
  <advance width="1229"/>
  <unicode hex="0035"/>
  <outline>
    <contour>
      <point x="494.592" y="-20.48" type="curve" smooth="yes"/>
      <point x="877.568" y="-20.48"/>
      <point x="1138.69" y="228.352"/>
      <point x="1138.69" y="590.848" type="curve" smooth="yes"/>
      <point x="1138.69" y="825.344"/>
      <point x="972.8" y="994.304"/>
      <point x="740.352" y="994.304" type="curve" smooth="yes"/>
      <point x="650.24" y="994.304"/>
      <point x="582.656" y="979.968"/>
      <point x="512" y="944.128" type="curve"/>
      <point x="630.784" y="1208.32" type="line"/>
      <point x="1230.85" y="1208.32" type="line"/>
      <point x="1285.12" y="1446.91" type="line"/>
      <point x="478.208" y="1446.91" type="line"/>
      <point x="163.84" y="686.08" type="line"/>
      <point x="388.096" y="616.448" type="line"/>
      <point x="463.872" y="704.512"/>
      <point x="575.488" y="760.832"/>
      <point x="674.816" y="760.832" type="curve" smooth="yes"/>
      <point x="802.816" y="760.832"/>
      <point x="879.616" y="692.224"/>
      <point x="879.616" y="577.536" type="curve" smooth="yes"/>
      <point x="879.616" y="355.328"/>
      <point x="741.376" y="214.016"/>
      <point x="522.24" y="214.016" type="curve" smooth="yes"/>
      <point x="384" y="214.016"/>
      <point x="312.32" y="303.104"/>
      <point x="312.32" y="476.16" type="curve"/>
      <point x="64.512" y="430.08" type="line"/>
      <point x="64.512" y="173.056"/>
      <point x="248.832" y="-20.48"/>
    </contour>
  </outline>
</glyph>
<glyph name="eight" format="2">
  <advance width="1229"/>
  <unicode hex="0038"/>
  <outline>
    <contour>
      <point x="503" y="-20" type="curve" smooth="yes"/>
      <point x="813" y="-20"/>
      <point x="1136" y="158"/>
      <point x="1136" y="506" type="curve" smooth="yes"/>
      <point x="1136" y="621"/>
      <point x="1090" y="709"/>
      <point x="998" y="770" type="curve"/>
      <point x="1135" y="865"/>
      <point x="1210" y="1001"/>
      <point x="1210" y="1146" type="curve" smooth="yes"/>
      <point x="1210" y="1368"/>
      <point x="1019" y="1468"/>
      <point x="822" y="1468" type="curve" smooth="yes"/>
      <point x="558" y="1468"/>
      <point x="276" y="1293"/>
      <point x="276" y="1001" type="curve" smooth="yes"/>
      <point x="276" y="914"/>
      <point x="302" y="846"/>
      <point x="354" y="795" type="curve"/>
      <point x="182" y="700"/>
      <point x="49" y="539"/>
      <point x="49" y="335" type="curve" smooth="yes"/>
      <point x="49" y="84"/>
      <point x="278" y="-20"/>
    </contour>
    <contour>
      <point x="690" y="879" type="curve" smooth="yes"/>
      <point x="581" y="879"/>
      <point x="525" y="924"/>
      <point x="525" y="1002" type="curve" smooth="yes"/>
      <point x="525" y="1140"/>
      <point x="672" y="1231"/>
      <point x="797" y="1231" type="curve" smooth="yes"/>
      <point x="894" y="1231"/>
      <point x="963" y="1190"/>
      <point x="963" y="1112" type="curve" smooth="yes"/>
      <point x="963" y="975"/>
      <point x="816" y="879"/>
    </contour>
    <contour>
      <point x="530" y="212" type="curve" smooth="yes"/>
      <point x="403" y="212"/>
      <point x="305" y="261"/>
      <point x="305" y="368" type="curve" smooth="yes"/>
      <point x="305" y="554"/>
      <point x="495" y="658"/>
      <point x="660" y="658" type="curve" smooth="yes"/>
      <point x="758" y="658"/>
      <point x="885" y="628"/>
      <point x="885" y="507" type="curve" smooth="yes"/>
      <point x="885" y="324"/>
      <point x="695" y="212"/>
    </contour>
  </outline>
</glyph>
<glyph name="nine" format="2">
  <advance width="1229"/>
  <unicode hex="0039"/>
  <outline>
    <contour>
      <point x="514.048" y="0" type="line"/>
      <point x="1113.09" y="702.464" type="line" smooth="yes"/>
      <point x="1207.3" y="812.032"/>
      <point x="1254.4" y="931.84"/>
      <point x="1254.4" y="1060.86" type="curve" smooth="yes"/>
      <point x="1254.4" y="1314.82"/>
      <point x="1061.89" y="1468.42"/>
      <point x="822.272" y="1468.42" type="curve" smooth="yes"/>
      <point x="505.856" y="1468.42"/>
      <point x="181.248" y="1198.08"/>
      <point x="181.248" y="871.424" type="curve" smooth="yes"/>
      <point x="181.248" y="683.008"/>
      <point x="312.32" y="503.808"/>
      <point x="508.928" y="503.808" type="curve" smooth="yes"/>
      <point x="585.728" y="503.808"/>
      <point x="671.744" y="525.312"/>
      <point x="721.92" y="564.224" type="curve"/>
      <point x="209.92" y="0" type="line"/>
    </contour>
    <contour>
      <point x="642.048" y="700.416" type="curve" smooth="yes"/>
      <point x="530.432" y="700.416"/>
      <point x="432.128" y="771.072"/>
      <point x="432.128" y="888.832" type="curve" smooth="yes"/>
      <point x="432.128" y="1064.96"/>
      <point x="621.568" y="1224.7"/>
      <point x="790.528" y="1224.7" type="curve" smooth="yes"/>
      <point x="903.168" y="1224.7"/>
      <point x="1002.5" y="1155.07"/>
      <point x="1002.5" y="1036.29" type="curve" smooth="yes"/>
      <point x="1002.5" y="858.112"/>
      <point x="813.056" y="700.416"/>
    </contour>
  </outline>
</glyph>
<glyph name="less" format="2">
  <advance width="1267"/>
  <unicode hex="003C"/>
  <outline>
    <contour>
      <point x="1054.72" y="155.648" type="line"/>
      <point x="1160.19" y="337.92" type="line"/>
      <point x="450.56" y="690.176" type="line"/>
      <point x="1160.19" y="1042.43" type="line"/>
      <point x="1054.72" y="1224.7" type="line"/>
      <point x="46.08" y="690.176" type="line"/>
    </contour>
  </outline>
</glyph>
<glyph name="T" format="2">
  <advance width="1208"/>
  <unicode hex="0054"/>
  <anchor x="837" y="1620" name="top"/>
  <anchor x="488" y="0" name="cedilla"/>
  <anchor x="488" y="-120" name="bottom"/>
  <outline>
    <contour>
      <point x="618" y="0" type="line"/>
      <point x="897" y="1209" type="line"/>
      <point x="1351" y="1209" type="line"/>
      <point x="1405" y="1448" type="line"/>
      <point x="239" y="1448" type="line"/>
      <point x="184" y="1209" type="line"/>
      <point x="638" y="1209" type="line"/>
      <point x="358" y="0" type="line"/>
    </contour>
  </outline>
  <guideline angle="90" name="vertical" x="837" y="0"/>
</glyph>
<glyph name="W" format="2">
  <advance width="2051"/>
  <unicode hex="0057"/>
  <anchor x="1234" y="1620" name="top"/>
  <outline>
    <contour>
      <point x="1424.38" y="0" type="line"/>
      <point x="2192.38" y="1446.91" type="line"/>
      <point x="1922.05" y="1446.91" type="line"/>
      <point x="1368.06" y="381.952" type="line"/>
      <point x="1293.31" y="1446.91" type="line"/>
      <point x="1091.58" y="1446.91" type="line"/>
      <point x="525.312" y="381.952" type="line"/>
      <point x="462.848" y="1446.91" type="line"/>
      <point x="192.512" y="1446.91" type="line"/>
      <point x="292.864" y="0" type="line"/>
      <point x="543.744" y="0" type="line"/>
      <point x="1097.73" y="1036.29" type="line"/>
      <point x="1173.5" y="0" type="line"/>
    </contour>
  </outline>
  <guideline angle="90" name="vertical" x="1234" y="0"/>
</glyph>
<glyph name="bracketleft" format="2">
  <advance width="656"/>
  <unicode hex="005B"/>
  <outline>
    <contour>
      <point x="465.92" y="-167.936" type="line"/>
      <point x="505.856" y="0" type="line"/>
      <point x="264.192" y="0" type="line"/>
      <point x="598.016" y="1444.86" type="line"/>
      <point x="838.656" y="1444.86" type="line"/>
      <point x="876.544" y="1610.75" type="line"/>
      <point x="434.176" y="1610.75" type="line"/>
      <point x="23.552" y="-167.936" type="line"/>
    </contour>
  </outline>
</glyph>
<glyph name="d" format="2">
  <advance width="1234"/>
  <unicode hex="0064"/>
  <outline>
    <contour>
      <point x="405.576" y="-20.48" type="curve" smooth="yes"/>
      <point x="535.624" y="-20.48"/>
      <point x="643.144" y="20.48"/>
      <point x="727.112" y="102.4" type="curve"/>
      <point x="712.776" y="0" type="line"/>
      <point x="954.44" y="0" type="line"/>
      <point x="1297.6" y="1446.91" type="line"/>
      <point x="1033.41" y="1446.91" type="line"/>
      <point x="915.288" y="953.344" type="line"/>
      <point x="854.824" y="1050.62"/>
      <point x="739.201" y="1085.44"/>
      <point x="626.76" y="1085.44" type="curve" smooth="yes"/>
      <point x="270.408" y="1085.44"/>
      <point x="48.2" y="701.44"/>
      <point x="48.2" y="379.904" type="curve" smooth="yes"/>
      <point x="48.2" y="149.504"/>
      <point x="165.96" y="-20.4799"/>
    </contour>
    <contour>
      <point x="490.568" y="209.92" type="curve" smooth="yes"/>
      <point x="366.664" y="209.92"/>
      <point x="301.128" y="279.552"/>
      <point x="301.128" y="402.432" type="curve" smooth="yes"/>
      <point x="301.128" y="608.256"/>
      <point x="436.296" y="859.136"/>
      <point x="665.672" y="859.136" type="curve" smooth="yes"/>
      <point x="797.768" y="859.136"/>
      <point x="854.088" y="781.312"/>
      <point x="854.088" y="665.6" type="curve" smooth="yes"/>
      <point x="854.088" y="457.728"/>
      <point x="725.064" y="209.92"/>
    </contour>
  </outline>
</glyph>
<glyph name="o" format="2">
  <advance width="1189"/>
  <unicode hex="006F"/>
  <anchor x="735" y="1192" name="top"/>
  <anchor x="599" y="0" name="ogonek"/>
  <anchor x="1404" y="1064" name="pos"/>
  <anchor x="462" y="-120" name="bottom"/>
  <outline>
    <contour>
      <point x="488.208" y="-20.48" type="curve" smooth="yes"/>
      <point x="844.56" y="-20.48"/>
      <point x="1145.62" y="290.816"/>
      <point x="1145.62" y="647.168" type="curve" smooth="yes"/>
      <point x="1145.62" y="917.504"/>
      <point x="969.488" y="1084.42"/>
      <point x="709.392" y="1084.42" type="curve" smooth="yes"/>
      <point x="354.064" y="1084.42"/>
      <point x="51.984" y="764.928"/>
      <point x="51.984" y="410.624" type="curve" smooth="yes"/>
      <point x="51.984" y="143.36"/>
      <point x="230.16" y="-20.48"/>
    </contour>
    <contour>
      <point x="509.712" y="194.56" type="curve" smooth="yes"/>
      <point x="378.64" y="194.56"/>
      <point x="305.936" y="266.24"/>
      <point x="305.936" y="398.336" type="curve" smooth="yes"/>
      <point x="305.936" y="614.4"/>
      <point x="449.296" y="869.376"/>
      <point x="686.864" y="869.376" type="curve" smooth="yes"/>
      <point x="821.008" y="869.376"/>
      <point x="891.664" y="791.552"/>
      <point x="891.664" y="657.408" type="curve" smooth="yes"/>
      <point x="891.664" y="442.368"/>
      <point x="748.304" y="194.56"/>
    </contour>
  </outline>
  <guideline angle="90" name="vertical" x="735" y="0"/>
</glyph>
<glyph name="p" format="2">
  <advance width="1209"/>
  <unicode hex="0070"/>
  <outline>
    <contour>
      <point x="173.44" y="-448.512" type="line"/>
      <point x="312.704" y="111.616" type="line"/>
      <point x="371.072" y="16.384"/>
      <point x="483.712" y="-20.48"/>
      <point x="591.232" y="-20.48" type="curve" smooth="yes"/>
      <point x="946.56" y="-20.48"/>
      <point x="1169.79" y="358.4"/>
      <point x="1169.79" y="681.984" type="curve" smooth="yes"/>
      <point x="1169.79" y="913.408"/>
      <point x="1052.03" y="1084.42"/>
      <point x="812.416" y="1084.42" type="curve" smooth="yes"/>
      <point x="686.464" y="1084.42"/>
      <point x="583.04" y="1046.53"/>
      <point x="500.096" y="969.728" type="curve"/>
      <point x="520.576" y="1063.94" type="line"/>
      <point x="262.528" y="1063.94" type="line"/>
      <point x="-90.752" y="-448.512" type="line"/>
    </contour>
    <contour>
      <point x="553.344" y="209.92" type="curve" smooth="yes"/>
      <point x="429.44" y="209.92"/>
      <point x="363.904" y="280.576"/>
      <point x="363.904" y="402.432" type="curve" smooth="yes"/>
      <point x="363.904" y="606.208"/>
      <point x="500.096" y="861.184"/>
      <point x="727.424" y="861.184" type="curve" smooth="yes"/>
      <point x="855.424" y="861.184"/>
      <point x="917.888" y="790.528"/>
      <point x="917.888" y="664.576" type="curve" smooth="yes"/>
      <point x="917.888" y="454.656"/>
      <point x="787.84" y="209.92"/>
    </contour>
  </outline>
</glyph>
<glyph name="asciitilde" format="2">
  <advance width="1185"/>
  <unicode hex="007E"/>
  <outline>
    <contour>
      <point x="752.64" y="388.096" type="curve" smooth="yes"/>
      <point x="923.648" y="388.096"/>
      <point x="1008.64" y="479.232"/>
      <point x="1008.64" y="660.48" type="curve"/>
      <point x="826.368" y="660.48" type="line"/>
      <point x="826.368" y="601.088"/>
      <point x="825.344" y="566.272"/>
      <point x="758.784" y="566.272" type="curve" smooth="yes"/>
      <point x="690.176" y="566.272"/>
      <point x="599.04" y="666.624"/>
      <point x="408.576" y="666.624" type="curve" smooth="yes"/>
      <point x="248.832" y="666.624"/>
      <point x="176.128" y="569.344"/>
      <point x="176.128" y="415.744" type="curve"/>
      <point x="350.208" y="415.744" type="line"/>
      <point x="350.208" y="466.944"/>
      <point x="354.304" y="492.544"/>
      <point x="410.624" y="492.544" type="curve" smooth="yes"/>
      <point x="492.544" y="492.544"/>
      <point x="574.464" y="388.096"/>
    </contour>
  </outline>
</glyph>
<glyph name="sterling" format="2">
  <advance width="1229"/>
  <unicode hex="00A3"/>
  <outline>
    <contour>
      <point x="1049.51" y="0" type="line"/>
      <point x="1097.64" y="207.872" type="line"/>
      <point x="363.432" y="207.872" type="line"/>
      <point x="512.936" y="268.288"/>
      <point x="565.16" y="478.208"/>
      <point x="565.16" y="624.64" type="curve"/>
      <point x="1011.62" y="624.64" type="line"/>
      <point x="1059.75" y="824.32" type="line"/>
      <point x="565.16" y="824.32" type="line"/>
      <point x="557.992" y="854.016"/>
      <point x="554.92" y="885.76"/>
      <point x="554.92" y="919.552" type="curve" smooth="yes"/>
      <point x="554.92" y="1098.75"/>
      <point x="660.392" y="1270.78"/>
      <point x="851.88" y="1270.78" type="curve" smooth="yes"/>
      <point x="946.088" y="1270.78"/>
      <point x="1023.91" y="1214.46"/>
      <point x="1043.37" y="1100.8" type="curve"/>
      <point x="1246.12" y="1150.98" type="line"/>
      <point x="1221.54" y="1347.58"/>
      <point x="1067.94" y="1480.7"/>
      <point x="873.384" y="1480.7" type="curve" smooth="yes"/>
      <point x="567.208" y="1480.7"/>
      <point x="352.168" y="1232.9"/>
      <point x="352.168" y="930.816" type="curve" smooth="yes"/>
      <point x="352.168" y="896"/>
      <point x="355.24" y="860.16"/>
      <point x="361.384" y="824.32" type="curve"/>
      <point x="179.112" y="824.32" type="line"/>
      <point x="130.984" y="624.64" type="line"/>
      <point x="361.384" y="624.64" type="line"/>
      <point x="361.384" y="437.248"/>
      <point x="260.008" y="305.152"/>
      <point x="30.6321" y="201.728" type="curve"/>
      <point x="-15.4479" y="0" type="line"/>
    </contour>
  </outline>
</glyph>
<glyph name="yen" format="2">
  <advance width="1229"/>
  <unicode hex="00A5"/>
  <outline>
    <contour>
      <point x="601.576" y="0" type="line"/>
      <point x="647.656" y="199.68" type="line"/>
      <point x="953.832" y="199.68" type="line"/>
      <point x="995.816" y="388.096" type="line"/>
      <point x="689.64" y="388.096" type="line"/>
      <point x="719.336" y="507.904" type="line"/>
      <point x="1025.51" y="507.904" type="line"/>
      <point x="1067.5" y="696.32" type="line"/>
      <point x="853.48" y="696.32" type="line"/>
      <point x="1509.86" y="1446.91" type="line"/>
      <point x="1249.77" y="1446.91" type="line"/>
      <point x="665.064" y="760.832" type="line"/>
      <point x="402.92" y="1446.91" type="line"/>
      <point x="151.016" y="1446.91" type="line"/>
      <point x="463.336" y="698.368" type="line"/>
      <point x="243.176" y="698.368" type="line"/>
      <point x="199.144" y="507.904" type="line"/>
      <point x="505.32" y="507.904" type="line"/>
      <point x="475.624" y="388.096" type="line"/>
      <point x="169.448" y="388.096" type="line"/>
      <point x="127.464" y="199.68" type="line"/>
      <point x="433.64" y="199.68" type="line"/>
      <point x="387.56" y="0" type="line"/>
    </contour>
  </outline>
</glyph>
<glyph name="ordfeminine" format="2">
  <advance width="826"/>
  <unicode hex="00AA"/>
  <outline>
    <contour>
      <point x="371.712" y="726.016" type="curve" smooth="yes"/>
      <point x="498.688" y="726.016"/>
      <point x="581.632" y="774.144"/>
      <point x="640" y="818.176" type="curve"/>
      <point x="620.544" y="740.352" type="line"/>
      <point x="756.736" y="740.352" type="line"/>
      <point x="856.064" y="1166.34" type="line" smooth="yes"/>
      <point x="862.208" y="1192.96"/>
      <point x="865.28" y="1218.56"/>
      <point x="865.28" y="1243.14" type="curve" smooth="yes"/>
      <point x="865.28" y="1397.76"/>
      <point x="755.712" y="1468.42"/>
      <point x="610.304" y="1468.42" type="curve" smooth="yes"/>
      <point x="464.896" y="1468.42"/>
      <point x="371.712" y="1416.19"/>
      <point x="274.432" y="1310.72" type="curve"/>
      <point x="384" y="1210.37" type="line"/>
      <point x="454.656" y="1289.22"/>
      <point x="526.336" y="1329.15"/>
      <point x="600.064" y="1329.15" type="curve" smooth="yes"/>
      <point x="680.96" y="1329.15"/>
      <point x="718.848" y="1302.53"/>
      <point x="718.848" y="1236.99" type="curve" smooth="yes"/>
      <point x="718.848" y="1221.63"/>
      <point x="716.8" y="1204.22"/>
      <point x="712.704" y="1184.77" type="curve"/>
      <point x="505.856" y="1174.53" type="line" smooth="yes"/>
      <point x="337.92" y="1166.34"/>
      <point x="173.056" y="1104.9"/>
      <point x="173.056" y="915.456" type="curve" smooth="yes"/>
      <point x="173.056" y="791.552"/>
      <point x="258.048" y="726.016"/>
    </contour>
    <contour>
      <point x="399.36" y="866.304" type="curve" smooth="yes"/>
      <point x="353.28" y="866.304"/>
      <point x="332.8" y="888.832"/>
      <point x="332.8" y="918.528" type="curve" smooth="yes"/>
      <point x="332.8" y="1000.45"/>
      <point x="421.888" y="1034.24"/>
      <point x="496.64" y="1038.34" type="curve" smooth="yes"/>
      <point x="681.984" y="1048.58" type="line"/>
      <point x="641.024" y="919.552"/>
      <point x="577.536" y="866.304"/>
    </contour>
  </outline>
</glyph>
<glyph name="macron" format="2">
  <advance width="858"/>
  <unicode hex="00AF"/>
  <outline>
    <contour>
      <point x="308" y="1252" type="line"/>
      <point x="881" y="1252" type="line"/>
      <point x="914" y="1398" type="line"/>
      <point x="342" y="1398" type="line"/>
    </contour>
  </outline>
</glyph>
<glyph name="twosuperior" format="2">
  <advance width="831"/>
  <unicode hex="00B2"/>
  <outline>
    <contour>
      <point x="696.257" y="498" type="line"/>
      <point x="737.217" y="671.568" type="line"/>
      <point x="283.018" y="671.572" type="line"/>
      <point x="497.086" y="767.9"/>
      <point x="826.608" y="998.049"/>
      <point x="826.305" y="1250.64" type="curve" smooth="yes"/>
      <point x="826.12" y="1404.14"/>
      <point x="701.431" y="1475.92"/>
      <point x="561.089" y="1475.92" type="curve" smooth="yes"/>
      <point x="366.394" y="1475.92"/>
      <point x="199.358" y="1326.03"/>
      <point x="146.989" y="1142.31" type="curve"/>
      <point x="309.139" y="1114.8" type="line"/>
      <point x="341.803" y="1211.76"/>
      <point x="410.677" y="1300.82"/>
      <point x="530.369" y="1300.82" type="curve" smooth="yes"/>
      <point x="598.977" y="1300.82"/>
      <point x="632.716" y="1273.17"/>
      <point x="632.769" y="1217.87" type="curve" smooth="yes"/>
      <point x="632.962" y="1015.24"/>
      <point x="146.162" y="735.977"/>
      <point x="-12.3514" y="656.72" type="curve"/>
      <point x="-42.0474" y="498" type="line"/>
    </contour>
  </outline>
</glyph>
<glyph name="questiondown" format="2">
  <advance width="1017"/>
  <unicode hex="00BF"/>
  <outline>
    <contour>
      <point x="708.608" y="752.64" type="line"/>
      <point x="770.048" y="1022.98" type="line"/>
      <point x="496.64" y="1022.98" type="line"/>
      <point x="436.224" y="752.64" type="line"/>
    </contour>
    <contour>
      <point x="320.512" y="-444.416" type="curve" smooth="yes"/>
      <point x="579.584" y="-444.416"/>
      <point x="784.384" y="-283.648"/>
      <point x="848.896" y="-33.792" type="curve"/>
      <point x="632.832" y="-12.288" type="line"/>
      <point x="594.944" y="-154.624"/>
      <point x="477.184" y="-236.544"/>
      <point x="331.776" y="-236.544" type="curve" smooth="yes"/>
      <point x="206.848" y="-236.544"/>
      <point x="144.384" y="-194.56"/>
      <point x="144.384" y="-109.568" type="curve" smooth="yes"/>
      <point x="144.384" y="19.456"/>
      <point x="238.592" y="83.968"/>
      <point x="342.016" y="137.216" type="curve" smooth="yes"/>
      <point x="484.352" y="209.92"/>
      <point x="565.248" y="259.072"/>
      <point x="606.208" y="430.08" type="curve" smooth="yes"/>
      <point x="644.096" y="588.8" type="line"/>
      <point x="432.128" y="588.8" type="line"/>
      <point x="400.384" y="452.608" type="line" smooth="yes"/>
      <point x="389.12" y="407.552"/>
      <point x="348.16" y="377.856"/>
      <point x="258.048" y="335.872" type="curve" smooth="yes"/>
      <point x="61.44" y="244.736"/>
      <point x="-69.632" y="115.712"/>
      <point x="-69.632" y="-119.808" type="curve" smooth="yes"/>
      <point x="-69.632" y="-348.16"/>
      <point x="119.808" y="-444.416"/>
    </contour>
  </outline>
</glyph>
<glyph name="Ldot" format="2">
  <advance width="1089"/>
  <unicode hex="013F"/>
  <anchor x="546" y="1620" name="top"/>
  <anchor x="537" y="-120" name="bottom"/>
  <outline>
    <contour>
      <point x="948.224" y="0" type="line"/>
      <point x="1004.54" y="245.76" type="line"/>
      <point x="386.048" y="245.76" type="line"/>
      <point x="662.528" y="1447.94" type="line"/>
      <point x="402.432" y="1447.94" type="line"/>
      <point x="69.632" y="0" type="line"/>
    </contour>
    <contour>
      <point x="886.496" y="626.624" type="curve" smooth="yes"/>
      <point x="978.656" y="626.624"/>
      <point x="1061.6" y="705.472"/>
      <point x="1061.6" y="798.656" type="curve" smooth="yes"/>
      <point x="1061.6" y="875.456"/>
      <point x="1008.35" y="930.752"/>
      <point x="930.528" y="930.752" type="curve" smooth="yes"/>
      <point x="838.368" y="930.752"/>
      <point x="758.496" y="856"/>
      <point x="758.496" y="761.792" type="curve" smooth="yes"/>
      <point x="758.496" y="687.04"/>
      <point x="804.576" y="626.624"/>
    </contour>
  </outline>
</glyph>
<glyph name="lslash" format="2">
  <advance width="602"/>
  <unicode hex="0142"/>
  <outline>
    <contour>
      <point x="68.608" y="657.408" type="line"/>
      <point x="15.36" y="422.912" type="line"/>
      <point x="630.784" y="778.24" type="line"/>
      <point x="685.056" y="1012.74" type="line"/>
    </contour>
    <contour>
      <point x="259.072" y="-20.48" type="curve" smooth="yes"/>
      <point x="309.248" y="-20.48"/>
      <point x="369.664" y="-14.336"/>
      <point x="438.272" y="-2.048" type="curve"/>
      <point x="476.16" y="211.968" type="line"/>
      <point x="433.152" y="206.848"/>
      <point x="404.48" y="203.776"/>
      <point x="390.144" y="203.776" type="curve" smooth="yes"/>
      <point x="352.256" y="203.776"/>
      <point x="332.8" y="216.064"/>
      <point x="332.8" y="240.64" type="curve"/>
      <point x="619.568" y="1447.94" type="line"/>
      <point x="356.496" y="1447.94" type="line"/>
      <point x="61.8" y="214.016" type="line" smooth="yes"/>
      <point x="54.7036" y="184.303"/>
      <point x="50.536" y="157.696"/>
      <point x="50.536" y="133.12" type="curve" smooth="yes"/>
      <point x="50.536" y="22.528"/>
      <point x="129.978" y="-20.48"/>
    </contour>
  </outline>
  <guideline angle="77" x="648" y="851"/>
  <guideline angle="77" x="31" y="492"/>
  <guideline angle="30" x="878" y="921"/>
  <guideline angle="30" x="878" y="1124"/>
</glyph>
<glyph name="cedillacomb" format="2">
  <unicode hex="0327"/>
  <anchor x="-414" y="0" name="_cedilla"/>
  <outline>
    <contour>
      <point x="-499.984" y="-534.528" type="curve" smooth="yes"/>
      <point x="-359.696" y="-534.528"/>
      <point x="-259.344" y="-440.32"/>
      <point x="-259.344" y="-291.84" type="curve" smooth="yes"/>
      <point x="-259.344" y="-201.728"/>
      <point x="-331.024" y="-128"/>
      <point x="-420.112" y="-107.52" type="curve"/>
      <point x="-330" y="0" type="line"/>
      <point x="-483.6" y="0" type="line"/>
      <point x="-627.984" y="-177.152" type="line"/>
      <point x="-618.768" y="-199.68" type="line"/>
      <point x="-567.568" y="-199.68" type="line" smooth="yes"/>
      <point x="-473.36" y="-199.68"/>
      <point x="-413.968" y="-233.472"/>
      <point x="-413.968" y="-302.08" type="curve" smooth="yes"/>
      <point x="-413.968" y="-359.424"/>
      <point x="-461.072" y="-392.192"/>
      <point x="-521.488" y="-392.192" type="curve" smooth="yes"/>
      <point x="-550.16" y="-392.192"/>
      <point x="-593.168" y="-379.904"/>
      <point x="-596.24" y="-354.304" type="curve"/>
      <point x="-741.648" y="-392.192" type="line"/>
      <point x="-721.168" y="-475.136"/>
      <point x="-620.816" y="-534.528"/>
    </contour>
  </outline>
</glyph>
<glyph name="tonos" format="2">
  <advance width="522"/>
  <unicode hex="0384"/>
  <outline>
    <contour>
      <point x="525" y="1479" type="line"/>
      <point x="264" y="1479" type="line"/>
      <point x="105" y="1048" type="line"/>
      <point x="245" y="1048" type="line"/>
    </contour>
  </outline>
</glyph>
<glyph name="Delta" format="2">
  <advance width="1473"/>
  <unicode hex="0394"/>
  <outline>
    <contour>
      <point x="254.026" y="217.088" type="line"/>
      <point x="267.413" y="186.368" type="line"/>
      <point x="946.028" y="1165.31" type="line"/>
      <point x="923.5" y="1165.31" type="line"/>
      <point x="1158.29" y="186.368" type="line"/>
      <point x="1185.87" y="217.088" type="line"/>
    </contour>
    <contour>
      <point x="-15.2292" y="0" type="line"/>
      <point x="1354.88" y="0" type="line"/>
      <point x="1397.44" y="184.32" type="line"/>
      <point x="1105.49" y="1447.94" type="line"/>
      <point x="896.589" y="1447.94" type="line"/>
      <point x="27.3245" y="184.32" type="line"/>
    </contour>
  </outline>
  <guideline angle="245.98" x="735.232" y="1292.29"/>
  <guideline angle="65.9535" x="38.912" y="184.32"/>
  <guideline angle="114.28" x="1216.51" y="161.792"/>
  <guideline angle="294.273" x="825.344" y="1478.66"/>
</glyph>
<glyph name="Omega" format="2">
  <advance width="1591"/>
  <unicode hex="03A9"/>
  <outline>
    <contour>
      <point x="-14" y="0" type="line"/>
      <point x="644" y="0" type="line"/>
      <point x="719" y="385" type="line"/>
      <point x="640" y="423"/>
      <point x="519" y="503"/>
      <point x="445" y="607"/>
      <point x="425" y="744"/>
      <point x="447" y="840" type="qcurve" smooth="yes"/>
      <point x="467" y="925"/>
      <point x="552" y="1081"/>
      <point x="687" y="1199"/>
      <point x="874" y="1270"/>
      <point x="995" y="1270" type="qcurve" smooth="yes"/>
      <point x="1114" y="1270"/>
      <point x="1267" y="1200"/>
      <point x="1349" y="1082"/>
      <point x="1364" y="926"/>
      <point x="1344" y="840" type="qcurve" smooth="yes"/>
      <point x="1323" y="747"/>
      <point x="1241" y="612"/>
      <point x="1121" y="509"/>
      <point x="960" y="427"/>
      <point x="860" y="387" type="qcurve"/>
      <point x="755" y="0" type="line"/>
      <point x="1393" y="0" type="line"/>
      <point x="1442" y="215" type="line"/>
      <point x="979" y="215" type="line"/>
      <point x="1001" y="276" type="line"/>
      <point x="1243" y="346"/>
      <point x="1531" y="622"/>
      <point x="1581" y="840" type="qcurve" smooth="yes"/>
      <point x="1616" y="993"/>
      <point x="1564" y="1239"/>
      <point x="1417" y="1411"/>
      <point x="1188" y="1503"/>
      <point x="1047" y="1503" type="qcurve" smooth="yes"/>
      <point x="914" y="1503"/>
      <point x="641" y="1407"/>
      <point x="406" y="1232"/>
      <point x="232" y="988"/>
      <point x="198" y="840" type="qcurve" smooth="yes"/>
      <point x="147" y="617"/>
      <point x="310" y="346"/>
      <point x="524" y="276" type="qcurve"/>
      <point x="513" y="215" type="line"/>
      <point x="35" y="215" type="line"/>
    </contour>
  </outline>
</glyph>
<glyph name="gamma" format="2">
  <advance width="1194"/>
  <unicode hex="03B3"/>
  <outline>
    <contour>
      <point x="460" y="997" type="line" smooth="yes"/>
      <point x="455" y="1024"/>
      <point x="419" y="1062"/>
      <point x="367" y="1084"/>
      <point x="303" y="1094"/>
      <point x="270" y="1094" type="qcurve" smooth="yes"/>
      <point x="263" y="1094"/>
      <point x="237" y="1094"/>
      <point x="206" y="1092"/>
      <point x="174" y="1089"/>
      <point x="160" y="1087" type="qcurve"/>
      <point x="113" y="882" type="line"/>
      <point x="124" y="884"/>
      <point x="157" y="886"/>
      <point x="169" y="886" type="qcurve" smooth="yes"/>
      <point x="197" y="886"/>
      <point x="227" y="856"/>
      <point x="233" y="825" type="qcurve" smooth="yes"/>
      <point x="380" y="70" type="line"/>
      <point x="266" y="-426" type="line"/>
      <point x="523" y="-426" type="line"/>
      <point x="634" y="58" type="line"/>
      <point x="1275" y="1065" type="line"/>
      <point x="1019" y="1065" type="line"/>
      <point x="507" y="258" type="line"/>
      <point x="598" y="258" type="line"/>
    </contour>
  </outline>
</glyph>
<glyph name="kappa" format="2">
  <advance width="1165"/>
  <unicode hex="03BA"/>
  <outline>
    <contour>
      <point x="41" y="0" type="line"/>
      <point x="284" y="0" type="line"/>
      <point x="356" y="312" type="line"/>
      <point x="557" y="494" type="line"/>
      <point x="746" y="0" type="line"/>
      <point x="1043" y="0" type="line"/>
      <point x="765" y="651" type="line"/>
      <point x="1247" y="1064" type="line"/>
      <point x="919" y="1064" type="line"/>
      <point x="427" y="622" type="line"/>
      <point x="529" y="1064" type="line"/>
      <point x="287" y="1064" type="line"/>
    </contour>
  </outline>
</glyph>
<glyph name="lambda" format="2">
  <advance width="1131"/>
  <unicode hex="03BB"/>
  <outline>
    <contour>
      <point x="507" y="1237" type="qcurve" smooth="yes"/>
      <point x="660" y="156" type="line" smooth="yes"/>
      <point x="673" y="68"/>
      <point x="739" y="-6"/>
      <point x="820" y="-6" type="qcurve" smooth="yes"/>
      <point x="830" y="-6"/>
      <point x="873" y="-5"/>
      <point x="922" y="-3"/>
      <point x="969" y="0"/>
      <point x="982" y="2" type="qcurve"/>
      <point x="1026" y="190" type="line"/>
      <point x="961" y="189"/>
      <point x="917" y="208"/>
      <point x="914" y="238" type="qcurve"/>
      <point x="772" y="1243" type="line" smooth="yes"/>
      <point x="762" y="1315"/>
      <point x="728" y="1413"/>
      <point x="673" y="1475"/>
      <point x="592" y="1502"/>
      <point x="536" y="1503" type="qcurve"/>
      <point x="509" y="1503"/>
      <point x="424" y="1497"/>
      <point x="384" y="1491" type="qcurve"/>
      <point x="338" y="1292" type="line"/>
      <point x="368" y="1297"/>
      <point x="412" y="1300"/>
      <point x="442" y="1300" type="qcurve" smooth="yes"/>
      <point x="473" y="1300"/>
      <point x="503" y="1265"/>
    </contour>
    <contour>
      <point x="598" y="1135" type="line"/>
      <point x="-105" y="4" type="line"/>
      <point x="134" y="4" type="line"/>
      <point x="642" y="836" type="line"/>
    </contour>
  </outline>
</glyph>
<glyph name="rho" format="2">
  <advance width="1295"/>
  <unicode hex="03C1"/>
  <outline>
    <contour>
      <point x="-55" y="-426" type="line"/>
      <point x="199" y="-426" type="line"/>
      <point x="322" y="105" type="line"/>
      <point x="345" y="69"/>
      <point x="403" y="17"/>
      <point x="474" y="-15"/>
      <point x="552" y="-30"/>
      <point x="595" y="-30" type="qcurve" smooth="yes"/>
      <point x="708" y="-30"/>
      <point x="899" y="56"/>
      <point x="1049" y="209"/>
      <point x="1157" y="419"/>
      <point x="1185" y="542" type="qcurve" smooth="yes"/>
      <point x="1211" y="656"/>
      <point x="1199" y="857"/>
      <point x="1114" y="1007"/>
      <point x="955" y="1094"/>
      <point x="834" y="1094" type="qcurve" smooth="yes"/>
      <point x="695" y="1094"/>
      <point x="475" y="1019"/>
      <point x="308" y="868"/>
      <point x="190" y="638"/>
      <point x="154" y="483" type="qcurve" smooth="yes"/>
    </contour>
    <contour>
      <point x="436" y="603" type="line" smooth="yes"/>
      <point x="452" y="672"/>
      <point x="513" y="786"/>
      <point x="597" y="868"/>
      <point x="700" y="914"/>
      <point x="758" y="914" type="qcurve" smooth="yes"/>
      <point x="830" y="914"/>
      <point x="913" y="848"/>
      <point x="950" y="743"/>
      <point x="947" y="611"/>
      <point x="931" y="545" type="qcurve" smooth="yes"/>
      <point x="922" y="510" type="line" smooth="yes"/>
      <point x="905" y="447"/>
      <point x="846" y="315"/>
      <point x="759" y="207"/>
      <point x="644" y="138"/>
      <point x="572" y="138" type="qcurve" smooth="yes"/>
      <point x="519" y="138"/>
      <point x="440" y="184"/>
      <point x="394" y="263"/>
      <point x="383" y="371"/>
      <point x="397" y="433" type="qcurve" smooth="yes"/>
    </contour>
  </outline>
</glyph>
<glyph name="sigmafinal" format="2">
  <advance width="1087"/>
  <unicode hex="03C2"/>
  <outline>
    <contour>
      <point x="723" y="1090" type="curve" smooth="yes"/>
      <point x="323.298" y="1090"/>
      <point x="59.0864" y="806.338"/>
      <point x="59.0864" y="409.628" type="curve" smooth="yes"/>
      <point x="59.0864" y="207.265"/>
      <point x="151.475" y="103.819"/>
      <point x="291.76" y="65.3026" type="curve" smooth="yes"/>
      <point x="530.6" y="-0.272453" type="line" smooth="yes"/>
      <point x="576.714" y="-12.9332"/>
      <point x="636.608" y="-7.84355"/>
      <point x="636.608" y="-70.8975" type="curve" smooth="yes"/>
      <point x="636.608" y="-160.587"/>
      <point x="529.072" y="-349.98"/>
      <point x="475" y="-426" type="curve"/>
      <point x="719" y="-426" type="line"/>
      <point x="799.515" y="-315.307"/>
      <point x="897.12" y="-126.839"/>
      <point x="897.12" y="8.39801" type="curve" smooth="yes"/>
      <point x="897.12" y="66.6024"/>
      <point x="878.066" y="122.19"/>
      <point x="817.457" y="141" type="curve" smooth="yes"/>
      <point x="469.457" y="249" type="line" smooth="yes"/>
      <point x="365.823" y="281.162"/>
      <point x="326.692" y="409.903"/>
      <point x="326.692" y="516.585" type="curve" smooth="yes"/>
      <point x="326.692" y="716.189"/>
      <point x="451.439" y="926"/>
      <point x="669" y="926" type="curve" smooth="yes"/>
      <point x="793.838" y="926"/>
      <point x="844.155" y="842.411"/>
      <point x="844.155" y="726.599" type="curve" smooth="yes"/>
      <point x="844.155" y="697.567"/>
      <point x="841.052" y="668.566"/>
      <point x="836" y="640" type="curve"/>
      <point x="1090" y="640" type="line"/>
      <point x="1096.68" y="673.697"/>
      <point x="1100.57" y="708.021"/>
      <point x="1100.57" y="742.396" type="curve" smooth="yes"/>
      <point x="1100.57" y="965.645"/>
      <point x="936.041" y="1090"/>
    </contour>
  </outline>
</glyph>
<glyph name="sigma" format="2">
  <advance width="1294"/>
  <unicode hex="03C3"/>
  <outline>
    <contour>
      <point x="115" y="532" type="curve" smooth="yes"/>
      <point x="37.9071" y="199.703"/>
      <point x="197.993" y="-29"/>
      <point x="513" y="-29" type="curve" smooth="yes"/>
      <point x="823.822" y="-29"/>
      <point x="1088.9" y="197.035"/>
      <point x="1166" y="532" type="curve" smooth="yes"/>
      <point x="1243.54" y="866.216"/>
      <point x="1084.41" y="1093"/>
      <point x="772" y="1093" type="curve" smooth="yes"/>
      <point x="457.197" y="1093"/>
      <point x="192.545" y="866.246"/>
    </contour>
    <contour>
      <point x="370" y="532" type="curve" smooth="yes"/>
      <point x="428.667" y="784"/>
      <point x="559" y="922"/>
      <point x="731" y="922" type="curve" smooth="yes"/>
      <point x="903" y="922"/>
      <point x="967.667" y="784"/>
      <point x="909" y="532" type="curve" smooth="yes"/>
      <point x="850.333" y="280"/>
      <point x="723" y="142"/>
      <point x="551" y="142" type="curve" smooth="yes"/>
      <point x="379" y="142"/>
      <point x="311.333" y="280"/>
    </contour>
    <contour>
      <point x="1058" y="868" type="line"/>
      <point x="1328" y="868" type="line"/>
      <point x="1373" y="1064" type="line"/>
      <point x="926" y="1064" type="line"/>
    </contour>
  </outline>
</glyph>
<glyph name="omega" format="2">
  <advance width="1531"/>
  <unicode hex="03C9"/>
  <outline>
    <contour>
      <point x="379" y="1066" type="line"/>
      <point x="310" y="1002"/>
      <point x="197" y="869"/>
      <point x="111" y="730"/>
      <point x="50" y="582"/>
      <point x="31" y="502" type="qcurve" smooth="yes"/>
      <point x="7" y="400"/>
      <point x="10" y="208"/>
      <point x="74" y="60"/>
      <point x="208" y="-30"/>
      <point x="315" y="-30" type="qcurve" smooth="yes"/>
      <point x="378" y="-30"/>
      <point x="483" y="6"/>
      <point x="570" y="65"/>
      <point x="638" y="143"/>
      <point x="664" y="185" type="qcurve"/>
      <point x="673" y="144"/>
      <point x="699" y="67"/>
      <point x="749" y="7"/>
      <point x="832" y="-30"/>
      <point x="898" y="-30" type="qcurve" smooth="yes"/>
      <point x="1015" y="-30"/>
      <point x="1196" y="56"/>
      <point x="1329" y="199"/>
      <point x="1417" y="386"/>
      <point x="1440" y="487" type="qcurve" smooth="yes"/>
      <point x="1476" y="641"/>
      <point x="1441" y="934"/>
      <point x="1353" y="1066" type="qcurve"/>
      <point x="1091" y="1066" type="line"/>
      <point x="1138" y="1012"/>
      <point x="1191" y="872"/>
      <point x="1208" y="715"/>
      <point x="1196" y="552"/>
      <point x="1178" y="475" type="qcurve" smooth="yes"/>
      <point x="1166" y="421"/>
      <point x="1128" y="319"/>
      <point x="1069" y="240"/>
      <point x="986" y="192"/>
      <point x="926" y="192" type="qcurve" smooth="yes"/>
      <point x="851" y="192"/>
      <point x="816" y="303"/>
      <point x="838" y="396" type="qcurve" smooth="yes"/>
      <point x="937" y="826" type="line"/>
      <point x="682" y="826" type="line"/>
      <point x="573" y="355" type="line" smooth="yes"/>
      <point x="566" y="323"/>
      <point x="537" y="265"/>
      <point x="495" y="221"/>
      <point x="440" y="196"/>
      <point x="406" y="196" type="qcurve" smooth="yes"/>
      <point x="355" y="196"/>
      <point x="293" y="234"/>
      <point x="266" y="308"/>
      <point x="271" y="419"/>
      <point x="288" y="492" type="qcurve" smooth="yes"/>
      <point x="306" y="571"/>
      <point x="362" y="712"/>
      <point x="445" y="849"/>
      <point x="559" y="989"/>
      <point x="636" y="1066" type="qcurve"/>
    </contour>
  </outline>
</glyph>
<glyph name="Shchacyr" format="2">
  <advance width="1883"/>
  <unicode hex="0429"/>
  <outline>
    <component base="Shacyr"/>
    <contour>
      <point x="1625" y="-315" type="line"/>
      <point x="1753" y="239" type="line"/>
      <point x="625" y="239" type="line"/>
      <point x="625" y="0" type="line"/>
      <point x="1438" y="0" type="line"/>
      <point x="1365" y="-315" type="line"/>
    </contour>
  </outline>
</glyph>
<glyph name="decyr" format="2">
  <advance width="1200"/>
  <unicode hex="0434"/>
  <anchor x="693" y="1192" name="top"/>
  <outline>
    <contour>
      <point x="502.784" y="-16.384" type="curve" smooth="yes"/>
      <point x="977.962" y="-16.384"/>
      <point x="1188.35" y="438.479"/>
      <point x="1188.35" y="855.552" type="curve" smooth="yes"/>
      <point x="1188.35" y="1045.54"/>
      <point x="1122.71" y="1231.26"/>
      <point x="997.081" y="1343.86" type="curve" smooth="yes"/>
      <point x="900.144" y="1430.74"/>
      <point x="761.421" y="1468.02"/>
      <point x="627.286" y="1467.87" type="curve" smooth="yes"/>
      <point x="569.759" y="1467.8"/>
      <point x="510.346" y="1462.82"/>
      <point x="450.355" y="1448.16" type="curve"/>
      <point x="415.808" y="1245.86" type="line"/>
      <point x="465.017" y="1268.6"/>
      <point x="523.568" y="1276.63"/>
      <point x="581.681" y="1276.61" type="curve"/>
      <point x="675.827" y="1276.61"/>
      <point x="771.068" y="1246.46"/>
      <point x="841.587" y="1195.03" type="curve" smooth="yes"/>
      <point x="909.331" y="1145.19"/>
      <point x="950.908" y="1067.86"/>
      <point x="955.392" y="981.76" type="curve"/>
      <point x="884.385" y="1060.56"/>
      <point x="784.634" y="1085.44"/>
      <point x="681.728" y="1085.44" type="curve" smooth="yes"/>
      <point x="321.927" y="1085.44"/>
      <point x="51.2" y="769.473"/>
      <point x="51.2" y="419.84" type="curve" smooth="yes"/>
      <point x="51.2" y="140.941"/>
      <point x="229.688" y="-16.384"/>
    </contour>
    <contour>
      <point x="521.216" y="207.872" type="curve" smooth="yes"/>
      <point x="378.681" y="207.872"/>
      <point x="293.888" y="286.826"/>
      <point x="293.888" y="431.104" type="curve" smooth="yes"/>
      <point x="293.888" y="650.869"/>
      <point x="462.519" y="887.296"/>
      <point x="697.088" y="887.296" type="curve" smooth="yes"/>
      <point x="833.879" y="887.296"/>
      <point x="915.968" y="803.195"/>
      <point x="915.968" y="666.88" type="curve" smooth="yes"/>
      <point x="915.968" y="453.756"/>
      <point x="751.637" y="207.872"/>
    </contour>
  </outline>
</glyph>
<glyph name="encyr" format="2">
  <advance width="1231"/>
  <unicode hex="043D"/>
  <outline>
    <contour>
      <point x="983" y="0" type="line"/>
      <point x="1227" y="1064" type="line"/>
      <point x="962" y="1064" type="line"/>
      <point x="875" y="684" type="line"/>
      <point x="436" y="684" type="line"/>
      <point x="523" y="1064" type="line"/>
      <point x="258" y="1064" type="line"/>
      <point x="15" y="0" type="line"/>
      <point x="279" y="0" type="line"/>
      <point x="392" y="498" type="line"/>
      <point x="831" y="498" type="line"/>
      <point x="717" y="0" type="line"/>
    </contour>
  </outline>
  <guideline angle="77.1045" x="436" y="684"/>
  <guideline angle="257.105" x="962" y="1064"/>
</glyph>
<glyph name="efcyr" format="2">
  <advance width="1566"/>
  <unicode hex="0444"/>
  <outline>
    <contour>
      <point x="649" y="211" type="line"/>
      <point x="604.324" y="201.171"/>
      <point x="557.046" y="196.106"/>
      <point x="509" y="196" type="curve" smooth="yes"/>
      <point x="376.863" y="195.709"/>
      <point x="305.165" y="267.407"/>
      <point x="305" y="400" type="curve" smooth="yes"/>
      <point x="304.686" y="652.327"/>
      <point x="477.841" y="862.749"/>
      <point x="686" y="863" type="curve" smooth="yes"/>
      <point x="723.113" y="863.045"/>
      <point x="766.341" y="857.589"/>
      <point x="789" y="850" type="curve"/>
      <point x="844" y="1059" type="line"/>
      <point x="798.202" y="1071.67"/>
      <point x="751.635" y="1078.03"/>
      <point x="705" y="1078" type="curve" smooth="yes"/>
      <point x="352.169" y="1077.75"/>
      <point x="41.0226" y="768.011"/>
      <point x="41" y="417" type="curve" smooth="yes"/>
      <point x="40.9832" y="155.184"/>
      <point x="219.575" y="-20.1971"/>
      <point x="486" y="-20" type="curve" smooth="yes"/>
      <point x="528.118" y="-19.9688"/>
      <point x="559.439" y="-17.6487"/>
      <point x="594" y="-12" type="curve"/>
    </contour>
    <contour>
      <point x="686" y="-440" type="line"/>
      <point x="1141" y="1448" type="line"/>
      <point x="881" y="1448" type="line"/>
      <point x="427" y="-440" type="line"/>
    </contour>
    <contour>
      <point x="692" y="3" type="line"/>
      <point x="746.338" y="-11.9897"/>
      <point x="804.008" y="-20.0286"/>
      <point x="857" y="-20" type="curve" smooth="yes"/>
      <point x="1216.88" y="-19.8057"/>
      <point x="1528.86" y="287.992"/>
      <point x="1529" y="643" type="curve" smooth="yes"/>
      <point x="1529.11" y="906.382"/>
      <point x="1351.7" y="1080.21"/>
      <point x="1083" y="1080" type="curve" smooth="yes"/>
      <point x="1054" y="1079.98"/>
      <point x="1023.19" y="1076.8"/>
      <point x="994" y="1074" type="curve"/>
      <point x="931" y="849" type="line"/>
      <point x="970.508" y="858.188"/>
      <point x="1014.37" y="863"/>
      <point x="1061" y="863" type="curve" smooth="yes"/>
      <point x="1194.64" y="863"/>
      <point x="1266.14" y="792.101"/>
      <point x="1266" y="659" type="curve" smooth="yes"/>
      <point x="1265.74" y="408.27"/>
      <point x="1090.38" y="196.284"/>
      <point x="883" y="196" type="curve" smooth="yes"/>
      <point x="843.326" y="195.946"/>
      <point x="793.959" y="201.87"/>
      <point x="758" y="211" type="curve"/>
    </contour>
  </outline>
</glyph>
<glyph name="eukrcyr" format="2">
  <advance width="1061"/>
  <unicode hex="0454"/>
  <outline>
    <contour>
      <point x="459.584" y="-20.48" type="curve" smooth="yes"/>
      <point x="668.559" y="-20.48"/>
      <point x="851.161" y="88.7818"/>
      <point x="959.296" y="278.528" type="curve"/>
      <point x="743.232" y="396.288" type="line"/>
      <point x="692.505" y="286.947"/>
      <point x="587.206" y="214.016"/>
      <point x="480.064" y="214.016" type="curve" smooth="yes"/>
      <point x="360.24" y="214.016"/>
      <point x="299.84" y="280.593"/>
      <point x="299.84" y="412.672" type="curve" smooth="yes"/>
      <point x="299.84" y="666.572"/>
      <point x="444.767" y="845.824"/>
      <point x="650.048" y="845.824" type="curve" smooth="yes"/>
      <point x="753.806" y="845.824"/>
      <point x="811.932" y="790.209"/>
      <point x="815.936" y="687.104" type="curve"/>
      <point x="1076.03" y="765.952" type="line"/>
      <point x="1035.42" y="962.613"/>
      <point x="887.238" y="1081.47"/>
      <point x="682.816" y="1081.34" type="curve" smooth="yes"/>
      <point x="332.719" y="1081.14"/>
      <point x="48.9356" y="774.431"/>
      <point x="48.96" y="396.288" type="curve" smooth="yes"/>
      <point x="48.9768" y="136.251"/>
      <point x="203.397" y="-20.48"/>
    </contour>
    <contour>
      <point x="198.383" y="443.936" type="line"/>
      <point x="674.624" y="443.936" type="line"/>
      <point x="717.632" y="631.279" type="line"/>
      <point x="243.459" y="631.279" type="line"/>
    </contour>
  </outline>
</glyph>
<glyph name="geupcyr" format="2">
  <advance width="855"/>
  <unicode hex="0491"/>
  <outline>
    <component base="dotlessi"/>
    <contour>
      <point x="457.925" y="854.568" type="line"/>
      <point x="923.682" y="854.568" type="line"/>
      <point x="741.089" y="1063.94" type="line"/>
      <point x="505.831" y="1063.94" type="line"/>
    </contour>
    <contour>
      <point x="923.558" y="854.568" type="line"/>
      <point x="1034.58" y="1338.37" type="line"/>
      <point x="774.384" y="1338.37" type="line"/>
      <point x="697.365" y="1033.58" type="line"/>
    </contour>
  </outline>
  <guideline angle="77.0236" x="929" y="878"/>
  <guideline angle="256.983" x="506" y="1064"/>
</glyph>
<glyph name="zhetailcyr" format="2">
  <advance width="1627"/>
  <unicode hex="0497"/>
  <outline>
    <component base="zhecyr"/>
    <contour>
      <point x="1564.38" y="-307.336" type="line"/>
      <point x="1688.86" y="233.43" type="line"/>
      <point x="1396.86" y="233.43" type="line"/>
      <point x="1338.43" y="0" type="line"/>
      <point x="1394" y="0" type="line"/>
      <point x="1322.38" y="-307.336" type="line"/>
    </contour>
  </outline>
</glyph>
<glyph name="Entailcyr" format="2">
  <advance width="1527"/>
  <unicode hex="04A2"/>
  <outline>
    <component base="H"/>
    <contour>
      <point x="1346.18" y="-307.336" type="line"/>
      <point x="1470.66" y="233.43" type="line"/>
      <point x="1178.67" y="233.43" type="line"/>
      <point x="1120.23" y="0" type="line"/>
      <point x="1175.81" y="0" type="line"/>
      <point x="1104.18" y="-307.336" type="line"/>
    </contour>
  </outline>
</glyph>
<glyph name="quotedblbase" format="2">
  <advance width="919"/>
  <unicode hex="201E"/>
  <outline>
    <contour>
      <point x="83.968" y="-230.4" type="line"/>
      <point x="452.608" y="270.336" type="line"/>
      <point x="188.416" y="270.336" type="line"/>
      <point x="-62.464" y="-230.4" type="line"/>
    </contour>
    <contour>
      <point x="440.32" y="-230.4" type="line"/>
      <point x="809.984" y="270.336" type="line"/>
      <point x="544.768" y="270.336" type="line"/>
      <point x="293.888" y="-230.4" type="line"/>
    </contour>
  </outline>
</glyph>
<glyph name="two.inferior" format="2">
  <advance width="831"/>
  <unicode hex="2082"/>
  <outline>
    <contour>
      <point x="560.32" y="-489.744" type="line"/>
      <point x="601.28" y="-316.176" type="line"/>
      <point x="147.082" y="-316.172" type="line"/>
      <point x="146.166" y="-312.18" type="line"/>
      <point x="211.136" y="-282.944"/>
      <point x="287.293" y="-246.844"/>
      <point x="364.736" y="-188.688" type="curve" smooth="yes"/>
      <point x="599.245" y="-12.5849"/>
      <point x="690.547" y="114.032"/>
      <point x="690.368" y="262.896" type="curve" smooth="yes"/>
      <point x="690.183" y="416.393"/>
      <point x="565.494" y="488.176"/>
      <point x="425.152" y="488.176" type="curve" smooth="yes"/>
      <point x="230.457" y="488.176"/>
      <point x="63.4209" y="338.288"/>
      <point x="11.0528" y="154.568" type="curve"/>
      <point x="173.202" y="127.06" type="line"/>
      <point x="205.866" y="224.016"/>
      <point x="274.74" y="313.072"/>
      <point x="394.432" y="313.072" type="curve" smooth="yes"/>
      <point x="463.04" y="313.072"/>
      <point x="496.779" y="285.424"/>
      <point x="496.832" y="230.128" type="curve" smooth="yes"/>
      <point x="496.947" y="109.796"/>
      <point x="353.917" y="-4.42318"/>
      <point x="267.456" y="-68.88" type="curve" smooth="yes"/>
      <point x="137.07" y="-166.083"/>
      <point x="-2.73746" y="-258.249"/>
      <point x="-148.288" y="-331.024" type="curve"/>
      <point x="-177.984" y="-489.744" type="line"/>
    </contour>
  </outline>
</glyph>
<glyph name="ruble" format="2">
  <advance width="1229"/>
  <unicode hex="20BD"/>
  <outline>
    <component base="P" xOffset="-16.528" yOffset="5.126e-06"/>
    <contour>
      <point x="-23.696" y="470.016" type="line"/>
      <point x="-69.776" y="268.288" type="line"/>
      <point x="712.56" y="268.288" type="line"/>
      <point x="758.64" y="470.016" type="line"/>
    </contour>
    <contour>
      <point x="275.312" y="842.752" type="line"/>
      <point x="62.32" y="842.752" type="line"/>
      <point x="12.144" y="620.544" type="line"/>
      <point x="225.136" y="620.544" type="line"/>
    </contour>
  </outline>
</glyph>
<glyph name="lozenge" format="2">
  <advance width="1124"/>
  <unicode hex="25CA"/>
  <outline>
    <contour>
      <point x="551.936" y="0" type="line"/>
      <point x="1111.04" y="734.208" type="line"/>
      <point x="884.736" y="1468.42" type="line"/>
      <point x="674.816" y="1468.42" type="line"/>
      <point x="113.664" y="734.208" type="line"/>
      <point x="342.016" y="0" type="line"/>
    </contour>
    <contour>
      <point x="492.544" y="232.448" type="line"/>
      <point x="360.448" y="734.208" type="line"/>
      <point x="734.208" y="1234.94" type="line"/>
      <point x="864.256" y="734.208" type="line"/>
    </contour>
  </outline>
</glyph>
<glyph name="Decyr.loclBGR" format="2">
  <advance width="1510"/>
  <outline>
    <component base="Elcyr.loclBGR" xOffset="64"/>
    <contour>
      <point x="337" y="239" type="line"/>
      <point x="-44" y="239" type="line"/>
      <point x="-172" y="-315" type="line"/>
      <point x="88" y="-315" type="line"/>
      <point x="162" y="0" type="line"/>
      <point x="337" y="0" type="line"/>
    </contour>
    <contour>
      <point x="1297" y="-315" type="line"/>
      <point x="1425" y="239" type="line"/>
      <point x="297" y="239" type="line"/>
      <point x="297" y="0" type="line"/>
      <point x="1110" y="0" type="line"/>
      <point x="1037" y="-315" type="line"/>
    </contour>
  </outline>
</glyph>
<glyph name="brevecomb_tildecomb" format="2">
  <anchor x="-323" y="1192" name="_top"/>
  <outline>
    <contour>
      <point x="-265.856" y="1191.94" type="curve" smooth="yes"/>
      <point x="-45.696" y="1191.94"/>
      <point x="65.92" y="1283.07"/>
      <point x="105.856" y="1468.42" type="curve"/>
      <point x="-66.176" y="1468.42" type="line"/>
      <point x="-90.752" y="1384.45"/>
      <point x="-176.768" y="1338.37"/>
      <point x="-259.712" y="1338.37" type="curve" smooth="yes"/>
      <point x="-332.416" y="1338.37"/>
      <point x="-368.256" y="1368.06"/>
      <point x="-368.256" y="1427.46" type="curve" smooth="yes"/>
      <point x="-368.256" y="1440.77"/>
      <point x="-367.232" y="1455.1"/>
      <point x="-364.16" y="1468.42" type="curve"/>
      <point x="-536.192" y="1468.42" type="line"/>
      <point x="-543.36" y="1437.7"/>
      <point x="-546.432" y="1412.1"/>
      <point x="-546.432" y="1391.62" type="curve" smooth="yes"/>
      <point x="-546.432" y="1268.74"/>
      <point x="-459.392" y="1191.94"/>
    </contour>
    <contour>
      <point x="53.2141" y="1800.85" type="line"/>
      <point x="43.0485" y="1756.82" type="line" smooth="yes"/>
      <point x="27.6819" y="1690.26"/>
      <point x="1.37003" y="1660.56"/>
      <point x="-45.734" y="1660.56" type="curve" smooth="yes"/>
      <point x="-82.5071" y="1660.56"/>
      <point x="-103.919" y="1698.45"/>
      <point x="-121.976" y="1725.07" type="curve" smooth="yes"/>
      <point x="-169.939" y="1795.79"/>
      <point x="-206.047" y="1816.02"/>
      <point x="-293.836" y="1816.02" type="curve" smooth="yes"/>
      <point x="-418.764" y="1816.02"/>
      <point x="-515.264" y="1735.12"/>
      <point x="-544.343" y="1609.17" type="curve" smooth="yes"/>
      <point x="-564.201" y="1523.15" type="line"/>
      <point x="-420.841" y="1523.15" type="line"/>
      <point x="-410.675" y="1567.18" type="line" smooth="yes"/>
      <point x="-395.309" y="1633.74"/>
      <point x="-368.997" y="1663.44"/>
      <point x="-321.893" y="1663.44" type="curve" smooth="yes"/>
      <point x="-298.341" y="1663.44"/>
      <point x="-281.677" y="1652.05"/>
      <point x="-253.29" y="1610.19" type="curve" smooth="yes"/>
      <point x="-209.625" y="1545.81"/>
      <point x="-151.615" y="1507.98"/>
      <point x="-73.7909" y="1507.98" type="curve" smooth="yes"/>
      <point x="51.1371" y="1507.98"/>
      <point x="147.637" y="1588.88"/>
      <point x="176.716" y="1714.83" type="curve" smooth="yes"/>
      <point x="196.574" y="1800.85" type="line"/>
    </contour>
  </outline>
</glyph>
<glyph name="two.pnum" format="2">
  <advance width="1260"/>
  <outline>
    <contour>
      <point x="-71.32" y="0" type="line"/>
      <point x="1025.38" y="0" type="line"/>
      <point x="1079.66" y="231.424" type="line"/>
      <point x="415.08" y="231.424" type="line"/>
      <point x="869.736" y="465.92"/>
      <point x="1199.46" y="839.68"/>
      <point x="1199.46" y="1121.28" type="curve" smooth="yes"/>
      <point x="1199.46" y="1329.15"/>
      <point x="1043.82" y="1468.42"/>
      <point x="813.416" y="1468.42" type="curve" smooth="yes"/>
      <point x="540.989" y="1468.42"/>
      <point x="288.604" y="1257.37"/>
      <point x="208.608" y="972.285" type="curve"/>
      <point x="453.095" y="928.526" type="line"/>
      <point x="510.958" y="1119.43"/>
      <point x="635.91" y="1234.94"/>
      <point x="787.816" y="1234.94" type="curve" smooth="yes"/>
      <point x="887.144" y="1234.94"/>
      <point x="941.416" y="1186.82"/>
      <point x="941.416" y="1100.8" type="curve" smooth="yes"/>
      <point x="941.416" y="893.952"/>
      <point x="551.272" y="535.552"/>
      <point x="-27.2879" y="211.968" type="curve"/>
    </contour>
  </outline>
</glyph>
<glyph name="yukrcyr.calt" format="2">
  <advance width="545"/>
  <anchor x="262" y="0" name="ogonek"/>
  <anchor x="122" y="-120" name="bottom"/>
  <anchor x="423" y="1192" name="top"/>
  <outline>
    <contour>
      <point x="276" y="0" type="line"/>
      <point x="531" y="1064" type="line"/>
      <point x="267" y="1064" type="line"/>
      <point x="12" y="0" type="line"/>
    </contour>
    <contour>
      <point x="352" y="1192" type="line"/>
      <point x="404" y="1423" type="line"/>
      <point x="194" y="1423" type="line"/>
      <point x="142" y="1192" type="line"/>
    </contour>
    <contour>
      <point x="804" y="1192" type="line"/>
      <point x="856" y="1423" type="line"/>
      <point x="646" y="1423" type="line"/>
      <point x="594" y="1192" type="line"/>
    </contour>
  </outline>
  <guideline angle="90" name="vertical" x="383" y="0"/>
</glyph>
